# xmcd CD database file
#
# Track frame offsets:
#	150
#	20041
#	43643
#	66088
#	85092
#	101817
#	123116
#	146991
#	172038
#	190035
#
# Disc length: 2962 seconds
#
# Revision: 1
# Processed by: cddbd v1.5.2PL0 Copyright (c) Steve Scherf et al.
# Submitted via: CDex 1.70beta2
#
DISCID=8a0b900a
DTITLE=Hijak Oscar - Hijak Oscar
DYEAR=2006
DGENRE=Blues
TTITLE0=God knows
TTITLE1=Disciple of time
TTITLE2=Dollar bill
TTITLE3=Honey bee
TTITLE4=Lie to me
TTITLE5=Time to fall
TTITLE6=Hot coals
TTITLE7=Bitter carnival
TTITLE8=Losing hand
TTITLE9=Creeping fool
EXTD=YEAR: 2006
EXTT0=
EXTT1=
EXTT2=
EXTT3=
EXTT4=
EXTT5=
EXTT6=
EXTT7=
EXTT8=
EXTT9=
PLAYORDER=
